<svg width="256" height="118" viewBox="0 0 256 118" fill="none" xmlns="http://www.w3.org/2000/svg">
<g clip-path="url(#clip0_10_79)">
<rect y="11" width="246" height="94" rx="16" fill="#57B0FF"/>
<rect x="21" y="42" width="110" height="6" rx="3" fill="white"/>
<rect x="21" y="55" width="150" height="6" rx="3" fill="white"/>
<rect x="21" y="68" width="172" height="6" rx="3" fill="white"/>
<rect x="21" y="81" width="160" height="6" rx="3" fill="white"/>
<rect x="234.07" y="21" width="2" height="10" rx="1" transform="rotate(45 234.07 21)" fill="white"/>
<rect x="235.484" y="28.0703" width="2" height="10" rx="1" transform="rotate(135 235.484 28.0703)" fill="white"/>
<circle cx="36" cy="16" r="16" fill="url(#paint0_linear_10_79)"/>
<path d="M40.6667 15.3281H31.3333C30.597 15.3281 30 15.9251 30 16.6615V21.3281C30 22.0645 30.597 22.6615 31.3333 22.6615H40.6667C41.403 22.6615 42 22.0645 42 21.3281V16.6615C42 15.9251 41.403 15.3281 40.6667 15.3281Z" stroke="white" stroke-width="1.33333" stroke-linecap="round" stroke-linejoin="round"/>
<path d="M32.6719 15.3281V12.6615C32.6719 11.7774 33.0231 10.9296 33.6482 10.3044C34.2733 9.67931 35.1212 9.32812 36.0052 9.32812C36.8893 9.32812 37.7371 9.67931 38.3622 10.3044C38.9874 10.9296 39.3385 11.7774 39.3385 12.6615V15.3281" stroke="white" stroke-width="1.33333" stroke-linecap="round" stroke-linejoin="round"/>
<path d="M200.5 86L226.971 70.1174C227.604 69.7374 228.396 69.7374 229.029 70.1174L255.5 86L256 118H200L200.5 86Z" fill="url(#paint1_linear_10_79)"/>
<path d="M228.772 70.5461L255.004 86.2857L255.492 117.5H200.508L200.996 86.2857L227.228 70.5461C227.703 70.2611 228.297 70.2611 228.772 70.5461Z" stroke="black" stroke-opacity="0.05"/>
<rect x="208" y="76" width="39" height="28" rx="2" fill="url(#paint2_linear_10_79)"/>
<path d="M256 86.6833C256 85.9246 255.188 85.4422 254.522 85.8051L200.522 115.216C200.2 115.391 200 115.728 200 116.094V117C200 117.552 200.448 118 201 118H255C255.552 118 256 117.552 256 117V86.6833Z" fill="url(#paint3_linear_10_79)"/>
<path d="M254.761 86.2442L200.761 115.655C200.6 115.743 200.5 115.911 200.5 116.094V117C200.5 117.276 200.724 117.5 201 117.5H255C255.276 117.5 255.5 117.276 255.5 117V86.6833C255.5 86.304 255.094 86.0628 254.761 86.2442Z" stroke="black" stroke-opacity="0.05"/>
<path d="M200 86.6833C200 85.9246 200.812 85.4422 201.478 85.8051L255.478 115.216C255.8 115.391 256 115.728 256 116.094V117C256 117.552 255.552 118 255 118H201C200.448 118 200 117.552 200 117V86.6833Z" fill="url(#paint4_linear_10_79)"/>
<path d="M201.239 86.2442L255.239 115.655C255.4 115.743 255.5 115.911 255.5 116.094V117C255.5 117.276 255.276 117.5 255 117.5H201C200.724 117.5 200.5 117.276 200.5 117V86.6833C200.5 86.304 200.906 86.0628 201.239 86.2442Z" stroke="black" stroke-opacity="0.05"/>
<rect x="215" y="80" width="22" height="2" rx="1" fill="white"/>
<rect x="215" y="84.5" width="26" height="2" rx="1" fill="white"/>
<rect x="215" y="89" width="20" height="2" rx="1" fill="white"/>
</g>
<defs>
<linearGradient id="paint0_linear_10_79" x1="26" y1="1.39698e-07" x2="52" y2="37.5" gradientUnits="userSpaceOnUse">
<stop stop-color="#FF6B71"/>
<stop offset="1" stop-color="#FF343C"/>
</linearGradient>
<linearGradient id="paint1_linear_10_79" x1="228" y1="69.5" x2="228" y2="118" gradientUnits="userSpaceOnUse">
<stop stop-color="#ECF6FF"/>
<stop offset="1" stop-color="#006EDB"/>
</linearGradient>
<linearGradient id="paint2_linear_10_79" x1="215.313" y1="76" x2="234.695" y2="114.938" gradientUnits="userSpaceOnUse">
<stop stop-color="#FF6B71"/>
<stop offset="1" stop-color="#FF343C"/>
</linearGradient>
<linearGradient id="paint3_linear_10_79" x1="253" y1="86.5" x2="228" y2="118" gradientUnits="userSpaceOnUse">
<stop stop-color="#F9FCFF"/>
<stop offset="1" stop-color="#B8DAFF"/>
</linearGradient>
<linearGradient id="paint4_linear_10_79" x1="210.5" y1="89" x2="228" y2="118" gradientUnits="userSpaceOnUse">
<stop stop-color="white"/>
<stop offset="1" stop-color="#DFEEFF"/>
</linearGradient>
<clipPath id="clip0_10_79">
<rect width="256" height="118" fill="white"/>
</clipPath>
</defs>
</svg>
